<svg width="200" height="50" viewBox="0 0 200 50" fill="none" xmlns="http://www.w3.org/2000/svg">
  <path d="M35.9375 10.9375C39.0625 10.9375 41.7188 11.7188 43.9062 13.2812C46.0938 14.8438 47.6562 17.0312 48.5938 19.8438C49.5312 22.6562 50 25.7812 50 29.2188C50 32.6562 49.5312 35.7812 48.5938 38.5938C47.6562 41.4062 46.0938 43.5938 43.9062 45.1562C41.7188 46.7188 39.0625 47.5 35.9375 47.5C32.8125 47.5 30.1562 46.7188 27.9688 45.1562C25.7812 43.5938 24.2188 41.4062 23.2812 38.5938C22.3438 35.7812 21.875 32.6562 21.875 29.2188C21.875 25.7812 22.3438 22.6562 23.2812 19.8438C24.2188 17.0312 25.7812 14.8438 27.9688 13.2812C30.1562 11.7188 32.8125 10.9375 35.9375 10.9375ZM35.9375 16.5625C34.0625 16.5625 32.5 17.0312 31.25 17.9688C30 18.9062 29.0625 20.3125 28.4375 22.1875C27.8125 24.0625 27.5 26.4062 27.5 29.2188C27.5 32.0312 27.8125 34.375 28.4375 36.25C29.0625 38.125 30 39.5312 31.25 40.4688C32.5 41.4062 34.0625 41.875 35.9375 41.875C37.8125 41.875 39.375 41.4062 40.625 40.4688C41.875 39.5312 42.8125 38.125 43.4375 36.25C44.0625 34.375 44.375 32.0312 44.375 29.2188C44.375 26.4062 44.0625 24.0625 43.4375 22.1875C42.8125 20.3125 41.875 18.9062 40.625 17.9688C39.375 17.0312 37.8125 16.5625 35.9375 16.5625Z" fill="#0596DE"/>
  <path d="M60.9375 11.25H66.5625V16.875H72.1875V22.5H66.5625V36.25C66.5625 37.5 66.7188 38.4375 67.0312 39.0625C67.3438 39.6875 67.8125 40.1562 68.4375 40.4688C69.0625 40.7812 69.8438 40.9375 70.7812 40.9375C71.4062 40.9375 72.0312 40.9375 72.6562 40.9375C73.2812 40.9375 73.75 40.8438 74.0625 40.6562V46.5625C73.4375 46.75 72.6562 46.875 71.7188 46.9375C70.7812 47 69.8438 47.0312 68.9062 47.0312C66.5938 47.0312 64.6875 46.7188 63.1875 46.0938C61.6875 45.4688 60.5938 44.4375 59.9062 43C59.2188 41.5625 58.875 39.6875 58.875 37.3438V22.5H54.6875V16.875H55.9375C57.1875 16.875 58.125 16.5625 58.75 15.9375C59.375 15.3125 59.6875 14.4688 59.6875 13.4375V11.25H60.9375Z" fill="#0596DE"/>
  <path d="M84.0625 11.25H89.6875V16.875H95.3125V22.5H89.6875V36.25C89.6875 37.5 89.8438 38.4375 90.1562 39.0625C90.4688 39.6875 90.9375 40.1562 91.5625 40.4688C92.1875 40.7812 92.9688 40.9375 93.9062 40.9375C94.5312 40.9375 95.1562 40.9375 95.7812 40.9375C96.4062 40.9375 96.875 40.8438 97.1875 40.6562V46.5625C96.5625 46.75 95.7812 46.875 94.8438 46.9375C93.9062 47 92.9688 47.0312 92.0312 47.0312C89.7188 47.0312 87.8125 46.7188 86.3125 46.0938C84.8125 45.4688 83.7188 44.4375 83.0312 43C82.3438 41.5625 82 39.6875 82 37.3438V22.5H77.8125V16.875H79.0625C80.3125 16.875 81.25 16.5625 81.875 15.9375C82.5 15.3125 82.8125 14.4688 82.8125 13.4375V11.25H84.0625Z" fill="#0596DE"/>
  <path d="M107.188 11.25H112.812V16.875H118.438V22.5H112.812V36.25C112.812 37.5 112.969 38.4375 113.281 39.0625C113.594 39.6875 114.062 40.1562 114.688 40.4688C115.312 40.7812 116.094 40.9375 117.031 40.9375C117.656 40.9375 118.281 40.9375 118.906 40.9375C119.531 40.9375 120 40.8438 120.312 40.6562V46.5625C119.688 46.75 118.906 46.875 117.969 46.9375C117.031 47 116.094 47.0312 115.156 47.0312C112.844 47.0312 110.938 46.7188 109.438 46.0938C107.938 45.4688 106.844 44.4375 106.156 43C105.469 41.5625 105.125 39.6875 105.125 37.3438V22.5H100.938V16.875H102.188C103.438 16.875 104.375 16.5625 105 15.9375C105.625 15.3125 105.938 14.4688 105.938 13.4375V11.25H107.188Z" fill="#0596DE"/>
  <path d="M130.312 11.25H135.938V16.875H141.562V22.5H135.938V36.25C135.938 37.5 136.094 38.4375 136.406 39.0625C136.719 39.6875 137.188 40.1562 137.812 40.4688C138.438 40.7812 139.219 40.9375 140.156 40.9375C140.781 40.9375 141.406 40.9375 142.031 40.9375C142.656 40.9375 143.125 40.8438 143.438 40.6562V46.5625C142.812 46.75 142.031 46.875 141.094 46.9375C140.156 47 139.219 47.0312 138.281 47.0312C135.969 47.0312 134.062 46.7188 132.562 46.0938C131.062 45.4688 129.969 44.4375 129.281 43C128.594 41.5625 128.25 39.6875 128.25 37.3438V22.5H124.062V16.875H125.312C126.562 16.875 127.5 16.5625 128.125 15.9375C128.75 15.3125 129.062 14.4688 129.062 13.4375V11.25H130.312Z" fill="#0596DE"/>
  <path d="M153.438 11.25H159.062V16.875H164.688V22.5H159.062V36.25C159.062 37.5 159.219 38.4375 159.531 39.0625C159.844 39.6875 160.312 40.1562 160.938 40.4688C161.562 40.7812 162.344 40.9375 163.281 40.9375C163.906 40.9375 164.531 40.9375 165.156 40.9375C165.781 40.9375 166.25 40.8438 166.562 40.6562V46.5625C165.938 46.75 165.156 46.875 164.219 46.9375C163.281 47 162.344 47.0312 161.406 47.0312C159.094 47.0312 157.188 46.7188 155.688 46.0938C154.188 45.4688 153.094 44.4375 152.406 43C151.719 41.5625 151.375 39.6875 151.375 37.3438V22.5H147.188V16.875H148.438C149.688 16.875 150.625 16.5625 151.25 15.9375C151.875 15.3125 152.188 14.4688 152.188 13.4375V11.25H153.438Z" fill="#0596DE"/>
  <path d="M176.562 11.25H182.188V16.875H187.812V22.5H182.188V36.25C182.188 37.5 182.344 38.4375 182.656 39.0625C182.969 39.6875 183.438 40.1562 184.062 40.4688C184.688 40.7812 185.469 40.9375 186.406 40.9375C187.031 40.9375 187.656 40.9375 188.281 40.9375C188.906 40.9375 189.375 40.8438 189.688 40.6562V46.5625C189.062 46.75 188.281 46.875 187.344 46.9375C186.406 47 185.469 47.0312 184.531 47.0312C182.219 47.0312 180.312 46.7188 178.812 46.0938C177.312 45.4688 176.219 44.4375 175.531 43C174.844 41.5625 174.5 39.6875 174.5 37.3438V22.5H170.312V16.875H171.562C172.812 16.875 173.75 16.5625 174.375 15.9375C175 15.3125 175.312 14.4688 175.312 13.4375V11.25H176.562Z" fill="#0596DE"/>
</svg>