<svg width="44" height="49" viewBox="0 0 44 49" fill="none" xmlns="http://www.w3.org/2000/svg">
<path d="M11 1.53125C11 1.12514 10.8551 0.735658 10.5973 0.448493C10.3394 0.161328 9.98967 0 9.625 0C9.26033 0 8.91059 0.161328 8.65273 0.448493C8.39487 0.735658 8.25 1.12514 8.25 1.53125V3.0625H5.5C4.04131 3.0625 2.64236 3.70781 1.61091 4.85647C0.579463 6.00513 0 7.56305 0 9.1875L0 42.875C0 44.4995 0.579463 46.0574 1.61091 47.206C2.64236 48.3547 4.04131 49 5.5 49H38.5C39.9587 49 41.3576 48.3547 42.3891 47.206C43.4205 46.0574 44 44.4995 44 42.875V9.1875C44 7.56305 43.4205 6.00513 42.3891 4.85647C41.3576 3.70781 39.9587 3.0625 38.5 3.0625H35.75V1.53125C35.75 1.12514 35.6051 0.735658 35.3473 0.448493C35.0894 0.161328 34.7397 0 34.375 0C34.0103 0 33.6606 0.161328 33.4027 0.448493C33.1449 0.735658 33 1.12514 33 1.53125V3.0625H11V1.53125ZM6.99875 9.1875H37.0012C37.8262 9.1875 38.5 9.8735 38.5 10.7188V13.7812C38.5 14.6265 37.829 15.3125 36.9985 15.3125H6.99875C6.17375 15.3125 5.5 14.6265 5.5 13.7812V10.7188C5.5 9.8735 6.171 9.1875 6.99875 9.1875Z" fill="black"/>
</svg>
