<svg width="213" height="46" viewBox="0 0 213 46" fill="none" xmlns="http://www.w3.org/2000/svg">
<path d="M26.3907 44.7373C17.253 44.7373 15.8685 43.6723 16.3371 41.6275C16.6779 40.1791 24.1542 12.3187 24.3246 11.6797C25.0701 8.69771 28.2012 9.42191 28.329 9.44321C28.4142 9.46451 28.4781 9.54971 28.4568 9.63491C28.1799 12.0205 23.7921 35.557 23.7495 35.8552C23.3874 38.1769 23.7495 38.4112 26.625 38.4112C40.8321 38.4112 45.9867 28.5919 47.3925 20.7535C49.8207 7.1641 36.4869 3.09581 17.892 4.75721C17.7216 4.77851 16.4862 4.84241 15.9537 4.58681C15.2508 4.24601 14.6544 3.39401 14.5053 2.92541C14.4414 2.75501 14.4414 2.58461 14.5053 2.47811C14.5479 2.41421 14.5905 2.3503 14.6544 2.329C20.661 1.264 29.0106 -0.163096 34.3995 0.412004C54.8049 2.5633 54.8049 15.4072 53.6121 21.9037C52.9518 25.6738 49.5012 44.7373 26.3907 44.7373ZM99.5349 36.3451C98.2143 40.8394 94.1886 43.9492 89.5026 44.077C85.5621 44.29 81.6216 42.0535 79.8963 38.6029C79.2147 37.3036 78.8313 35.8978 78.6822 34.2364C78.0858 34.5133 77.4681 34.7689 76.8504 34.9606C76.041 37.2397 74.6352 39.3484 72.6969 40.7968C68.5434 43.8853 62.9202 44.7799 57.8721 42.0109C51.6525 37.7296 52.4193 29.1031 56.7645 24.0337C61.0884 18.9643 69.0333 18.1123 73.0164 20.6044C75.7215 22.351 77.1699 25.3543 77.5533 28.4854C78.1284 28.0807 78.6396 27.5695 79.236 26.8879C79.7898 26.2276 80.8761 24.6088 80.8761 24.6088C81.5151 23.629 82.3032 22.7131 83.1765 21.925C85.0083 20.3275 87.33 19.5394 89.673 19.5394C91.6965 19.5394 93.7626 20.1358 95.5518 21.3499C96.1269 21.7333 96.276 21.9463 96.0843 22.2658C95.8287 22.7344 95.5518 23.1604 95.211 23.5651C94.572 24.3319 93.9117 24.055 93.4644 23.8633C93.4005 23.842 93.3366 23.7994 93.2727 23.7781C91.2705 23.0752 89.6304 23.2243 87.9264 24.2467C84.2415 26.4832 83.6877 30.8284 84.3693 34.1512C85.0722 37.5379 86.9466 38.6881 88.4163 39.0502C91.1001 39.7318 94.6998 38.2834 96.9789 35.5996C97.6605 34.7902 98.7042 35.3227 99.4497 35.9191C99.4923 35.9404 99.5136 35.9617 99.5349 35.983C99.6414 36.1108 99.5349 36.3238 99.5349 36.3451ZM71.5254 24.9283C68.7777 21.5203 63.7935 22.6705 60.9819 25.8229C58.1703 28.9966 58.1277 34.1938 61.1949 36.3877C64.0704 38.4325 68.6499 37.3462 70.9077 34.066C72.4839 31.7656 73.911 27.889 71.5254 24.9283ZM140.282 32.0851C139.898 35.4079 138.194 38.7733 135.468 40.8181C131.315 43.9066 125.691 44.8012 120.643 42.0322C120.004 41.5849 119.429 41.095 118.939 40.5625C118.087 41.3293 117.086 42.0961 115.979 42.7564C112.592 44.8012 107.863 44.2687 104.945 41.5423C103.092 39.8809 102.197 37.1332 102.538 34.3429C102.836 31.8721 105.052 23.3521 107.118 15.7267C105.094 15.7906 103.326 15.7267 102.347 15.2581C100.77 14.4913 101.154 11.8714 101.303 11.1259C101.324 11.0194 101.431 10.9342 101.537 10.9342C102.304 10.9342 105.201 10.9129 108.417 10.8916C109.759 5.99261 110.824 2.30771 110.824 2.30771C111.207 1.00841 112.634 0.305504 113.934 0.305504C114.189 0.305504 114.424 0.32681 114.658 0.39071C114.743 0.41201 114.786 0.49721 114.764 0.60371C114.424 2.71241 113.763 6.54641 112.975 10.8916C114.722 10.8916 116.298 10.9129 117.363 10.9342C121.112 11.0194 126.053 11.2324 127.055 11.275C127.161 11.275 127.268 11.3602 127.289 11.4667C127.395 11.9353 127.481 13.1068 126.139 13.8736C124.988 14.5126 116.639 15.109 112.805 15.3646C112.592 15.3859 112.4 15.3859 112.187 15.4072C110.59 24.2254 108.886 33.3631 108.8 33.7678C108.374 35.8978 109.716 37.1971 110.909 37.4527C113.103 37.9213 114.892 36.9841 116.383 35.6209C115.553 31.6378 116.852 27.1648 119.514 24.0337C123.838 18.9643 131.783 18.1123 135.766 20.6044C139.515 23.0539 140.836 27.8677 140.282 32.0851ZM134.318 24.9283C131.57 21.5203 126.586 22.6705 123.774 25.8229C120.963 28.9966 120.92 34.1938 123.987 36.3877C126.863 38.4325 131.442 37.3462 133.7 34.066C135.276 31.7656 136.703 27.889 134.318 24.9283ZM165.245 14.257C166.481 15.0664 168.036 14.683 169.037 13.9375C169.718 13.4263 170.166 12.5956 170.272 11.701C170.4 10.7638 170.166 9.44321 169.122 8.76161C168.717 8.50601 168.249 8.3995 167.759 8.3995C166.992 8.3995 166.204 8.6764 165.586 9.0385C165.395 9.1663 165.245 9.2941 165.096 9.4645C165.011 9.571 164.926 9.69881 164.862 9.82661C163.989 11.3602 163.797 13.2559 165.245 14.257ZM193.873 20.647C191.04 18.8578 186.162 18.7939 182.03 20.7535C182.924 15.8332 184.863 2.329 185.14 0.625004C185.161 0.561104 185.14 0.518508 185.118 0.475908C185.097 0.433308 185.054 0.412004 185.012 0.412004C184.778 0.369404 184.543 0.326806 184.288 0.326806C182.988 0.326806 181.561 1.0297 181.178 2.329C181.178 2.329 173.595 32.9371 173.339 34.3642C171.593 37.0693 169.484 38.113 167.184 37.4101C165.267 36.8137 165.373 35.344 165.437 34.6198C165.544 33.4696 167.525 22.1167 167.887 19.582C167.908 19.4116 167.801 19.2625 167.631 19.2199C167.226 19.156 166.8 19.1134 166.374 19.1134C164.969 19.1134 163.52 19.6246 162.668 21.7546C162.647 21.8398 160.155 30.5515 159.686 32.4259C159.622 32.6602 159.58 32.8945 159.516 33.1288C157.684 35.8978 154.851 38.326 150.761 37.4527C149.569 37.1971 148.248 36.3238 148.653 33.7678C148.759 33.0862 152.508 11.4028 153.594 4.48031C153.616 4.37381 153.573 4.28861 153.488 4.26731C153.254 4.20341 152.998 4.18211 152.764 4.18211C151.464 4.18211 150.059 4.88501 149.654 6.18431C149.654 6.18431 143.669 28.1446 142.391 34.3429C141.815 37.0693 142.22 39.7318 144.648 41.8831C146.906 43.9066 151.251 44.5456 154.851 43.0333C156.938 42.16 158.685 40.7329 159.899 39.4975C161.475 42.6499 165.245 44.6947 168.717 43.864C171.401 43.225 173.446 41.2867 174.788 39.6679C175.32 40.4347 175.938 41.1163 176.598 41.6488C179.687 44.0983 184.053 44.5456 188.015 43.3741C190.017 42.9268 191.934 42.0535 193.596 40.8181C196.322 38.752 198.047 35.4079 198.41 32.0851C198.963 27.8677 197.621 23.0539 193.873 20.647ZM191.913 34.5559C189.677 37.8361 184.543 39.0715 181.668 37.0267C178.579 34.8328 179.176 29.4652 181.987 26.3128C184.799 23.1391 189.783 22.0102 192.531 25.4182C194.916 28.3576 193.489 32.2342 191.913 34.5559Z" fill="#1D78C6"/>
</svg>
