<svg width="33" height="50" viewBox="0 0 33 50" fill="none" xmlns="http://www.w3.org/2000/svg">
<path d="M16.5 50C16.5 50 33 32.2313 33 18.75C33 13.7772 31.2616 9.00805 28.1673 5.49175C25.0729 1.97544 20.8761 0 16.5 0C12.1239 0 7.92709 1.97544 4.83274 5.49175C1.73839 9.00805 6.52086e-08 13.7772 0 18.75C0 32.2313 16.5 50 16.5 50ZM16.5 28.125C14.312 28.125 12.2135 27.1373 10.6664 25.3791C9.11919 23.621 8.25 21.2364 8.25 18.75C8.25 16.2636 9.11919 13.879 10.6664 12.1209C12.2135 10.3627 14.312 9.375 16.5 9.375C18.688 9.375 20.7865 10.3627 22.3336 12.1209C23.8808 13.879 24.75 16.2636 24.75 18.75C24.75 21.2364 23.8808 23.621 22.3336 25.3791C20.7865 27.1373 18.688 28.125 16.5 28.125Z" fill="black"/>
</svg>
