<svg width="48" height="36" viewBox="0 0 48 36" fill="none" xmlns="http://www.w3.org/2000/svg">
<path d="M0.15 4.665C0.452455 3.33973 1.19597 2.15644 2.25876 1.30893C3.32156 0.461411 4.64065 -9.14833e-05 6 1.36024e-08H42C43.3593 -9.14833e-05 44.6784 0.461411 45.7412 1.30893C46.804 2.15644 47.5475 3.33973 47.85 4.665L24 19.242L0.15 4.665ZM0 8.091V29.403L17.409 18.729L0 8.091ZM20.283 20.49L0.573 32.571C1.05998 33.5979 1.82858 34.4653 2.78934 35.0723C3.75011 35.6794 4.86352 36.0011 6 36H42C43.1363 36.0003 44.2493 35.6778 45.2095 35.0703C46.1697 34.4627 46.9377 33.595 47.424 32.568L27.714 20.487L24 22.758L20.283 20.49ZM30.591 18.732L48 29.403V8.091L30.591 18.732Z" fill="black"/>
</svg>
