<svg width="38" height="54" viewBox="0 0 38 54" fill="none" xmlns="http://www.w3.org/2000/svg">
<path fill-rule="evenodd" clip-rule="evenodd" d="M4.47785 1.7219C4.8934 1.13223 5.39239 0.67479 5.94175 0.379908C6.49111 0.0850269 7.07829 -0.040566 7.66438 0.0114526C8.25048 0.0634712 8.8221 0.291913 9.34138 0.681641C9.86065 1.07137 10.3157 1.61348 10.6764 2.27205L14.9394 10.0552C15.7208 11.4829 15.9962 13.3426 15.6875 15.0976L14.3884 22.4892C14.3217 22.8721 14.3256 23.273 14.3996 23.6531C14.4737 24.0332 14.6154 24.3798 14.8112 24.6595L20.6463 32.9522C20.8433 33.231 21.0876 33.4327 21.3556 33.538C21.6235 33.6432 21.906 33.6484 22.1758 33.553L27.3745 31.7068C27.984 31.4915 28.6199 31.4753 29.2345 31.6594C29.849 31.8436 30.4262 32.2233 30.9227 32.77L36.3992 38.825C38.368 41.002 38.5485 45.1365 36.7863 47.6375L34.3307 51.1274C32.5732 53.625 29.9466 54.722 27.498 53.4968C21.2298 50.3666 15.5392 45.2673 10.8498 38.5786C6.14356 31.9152 2.55547 23.8291 0.352607 14.9221C-0.507116 11.4457 0.264735 7.70943 2.02218 5.21181L4.47785 1.7219Z" fill="black"/>
</svg>
